# AST/ASF file generated using VICON BodyLanguage
# -----------------------------------------------
:version 1.10
:name VICON
:units
  mass 1.0
  length 0.45
  angle deg
:documentation
   .ast/.asf automatically generated from VICON data using
   VICON BodyBuilder and BodyLanguage model FoxedUp or BRILLIANT.MOD
:root
   order TX TY TZ RX RY RZ
   axis XYZ
   position 0 0 0  
   orientation 0 0 0 
:bonedata
  begin
     id 1 
     name lhipjoint
     direction 0.575328 -0.747301 0.332475 
     length 2.40933 
     axis 0 0 0  XYZ
  end
  begin
     id 2 
     name lfemur
     direction 0.34202 -0.939693 0  
     length 7.31453  
     axis 0 0 20  XYZ
    dof rx ry rz
    limits (-160.0 20.0)
           (-70.0 70.0)
           (-60.0 70.0)
  end
  begin
     id 3 
     name ltibia
     direction 0.34202 -0.939693 0   
     length 7.82185   
     axis 0 0 20   XYZ
    dof rx
    limits (-10.0 170.0)
  end
  begin
     id 4 
     name lfoot
     direction 0.0795993 -0.218697 0.972541   
     length 2.19173   
     axis -90 7.62852e-016 20   XYZ
    dof rx rz
    limits (-45.0 90.0)
           (-70.0 20.0)
  end
  begin
     id 5 
     name ltoes
     direction 1.53537e-011 -4.21894e-011 1   
     length 1.10023   
     axis -90 7.62852e-016 20   XYZ
    dof rx
    limits (-90.0 20.0)
  end
  begin
     id 6 
     name rhipjoint
     direction -0.513884 -0.783789 0.348708   
     length 2.29716  
     axis 0 0 0  XYZ 
  end
  begin
     id 7 
     name rfemur
     direction -0.34202 -0.939693 0   
     length 7.59573   
     axis 0 0 -20   XYZ
    dof rx ry rz
    limits (-160.0 20.0)
           (-70.0 70.0)
           (-70.0 60.0)
  end
  begin
     id 8 
     name rtibia
     direction -0.34202 -0.939693 0   
     length 7.66402   
     axis 0 0 -20   XYZ
    dof rx
    limits (-10.0 170.0)
 end
 begin
     id 9 
     name rfoot
     direction -0.137793 -0.378584 0.915253   
     length 2.27056  
     axis -90 -7.62852e-016 -20   XYZ
    dof rx rz
    limits (-45.0 90.0)
           (-20.0 70.0)
  end
  begin
     id 10 
     name rtoes
     direction -1.53493e-011 -4.22159e-011 1   
     length 1.11766   
     axis -90 -7.62852e-016 -20   XYZ
    dof rx
    limits (-90.0 20.0)
  end
  begin
     id 11 
     name lowerback
     direction -0.00732775 0.998356 -0.05685   
     length 2.16513   
     axis 0 0 0   XYZ
    dof rx ry rz
    limits (-20.0 45.0)
           (-30.0 30.0)
           (-30.0 30.0)
  end
  begin
     id 12 
     name upperback
     direction 0.0218081 0.999627 -0.0164647   
     length 2.16755   
     axis 0 0 0   XYZ
    dof rx ry rz
    limits (-20.0 45.0)
           (-30.0 30.0)
           (-30.0 30.0)
  end
  begin
     id 13 
     name thorax
     direction 0.02365 0.999661 0.0108914   
     length 2.16932   
     axis 0 0 0   XYZ
    dof rx ry rz
    limits (-20.0 45.0)
           (-30.0 30.0)
           (-30.0 30.0)
  end
  begin
     id 14 
     name lowerneck
     direction -0.0523929 0.978385 0.200044   
     length 1.63877   
     axis 0 0 0   XYZ
    dof rx ry rz
    limits (-20.0 45.0)
           (-30.0 30.0)
           (-30.0 30.0)
  end
  begin
     id 15 
     name upperneck
     direction 0.0448674 0.981321 -0.187074   
     length 1.69014   
     axis 0 0 0   XYZ
    dof rx ry rz
    limits (-20.0 45.0)
           (-30.0 30.0)
           (-30.0 30.0)
  end
  begin
     id 16
     name head
     direction 0.0199089 0.996118 -0.0857429  
     length 1.70094  
     axis 0 0 0   XYZ
    dof rx ry rz
    limits (-20.0 45.0)
           (-30.0 30.0)
           (-30.0 30.0)
  end
  begin
     id 17 
     name lclavicle
     direction 0.940366 0.30191 -0.156722  
     length 3.37521  
     axis 0 0 0   XYZ
    dof ry rz
    limits (-20.0 10.0)
           (0.0 20.0)
  end
  begin
     id 18 
     name lhumerus
     direction 1 -4.4897e-011 -1.7911e-027   
     length 5.25287   
     axis 180 -30 -90   XYZ
    dof rx ry rz
    limits (-60.0 90.0)
           (-90.0 90.0)
           (-90.0 90.0)
  end
  begin
     id 19
     name lradius
     direction 1 -4.48951e-011 1.04424e-027   
     length 3.51014   
     axis 180 -30 -90   XYZ
    dof rx
    limits (-10.0 170.0)
  end
  begin
     id 20
     name lwrist
     direction 1 -4.48997e-011 -9.5942e-028   
     length 1.75507   
     axis 8.48502e-016 90 90   XYZ
    dof ry
    limits (-180.0 0.0)
 end
  begin
     id 21 
     name lhand
     direction 1 -4.48831e-011 -1.90777e-027   
     length 0.706179   
     axis 1.22306e-015 90 90   XYZ
    dof rx rz
    limits (-90.0 90.0)
           (-45.0 45.0)
  end
  begin
     id 22 
     name lfingers
     direction 1 -4.49108e-011 -3.85244e-027   
     length 0.569339   
     axis 2.44611e-015 90 90   XYZ
    dof rx
    limits (0.0 90.0)
  end
  begin
     id 23
     name lthumb
     direction 0.707107 -6.34953e-011 0.707107   
     length 0.817461   
     axis -90 45 -1.62303e-014   XYZ
    dof rx rz
    limits (-45.0 45.0)
           (-45.0 45.0)
  end
  begin
     id 24 
     name rclavicle
     direction -0.905329 0.382405 -0.184787   
     length 3.30787  
     axis 0 0 0   XYZ 
    dof ry rz
    limits (-10.0 20.0)
           (-20.0 0.0)
  end
  begin
     id 25 
     name rhumerus
     direction -1 -4.48953e-011 -9.15316e-029  
     length 5.28721   
     axis 180 30 90   XYZ
    dof rx ry rz
    limits (-90.0 60.0)
           (-90.0 90.0)
           (-90.0 90.0)
  end
  begin
     id 26 
     name rradius
     direction -1 -4.48987e-011 9.37824e-028   
     length 3.50544   
     axis 180 30 90   XYZ
    dof rx
    limits (-10.0 170.0)
  end
  begin
     id 27 
     name rwrist
     direction -1 -4.48967e-011 -9.58414e-028   
     length 1.75272   
     axis 8.48502e-016 -90 -90   XYZ
    dof ry
    limits (-180.0 0.0)
  end
  begin
     id 28
     name rhand
     direction -1 -4.48904e-011 -1.91266e-027   
     length 0.884996   
     axis 1.22306e-015 -90 -90   XYZ
    dof rx rz
    limits (-90.0 90.0)
           (-45.0 45.0)
  end
  begin
     id 29
     name rfingers
     direction -1 -4.4909e-011 -3.85015e-027   
     length 0.713507   
     axis 2.44611e-015 -90 -90   XYZ
    dof rx
    limits (0.0 90.0)
  end
  begin
     id 30
     name rthumb
     direction -0.707107 -6.34853e-011 0.707107   
     length 1.02446   
     axis -90 -45 1.62303e-014   XYZ
    dof rx rz
    limits (-45.0 45.0)
           (-45.0 45.0)
  end
:hierarchy
  begin
    root lhipjoint rhipjoint lowerback
    lhipjoint lfemur
    lfemur ltibia
    ltibia lfoot
    lfoot ltoes
    rhipjoint rfemur
    rfemur rtibia
    rtibia rfoot
    rfoot rtoes
    lowerback upperback
    upperback thorax
    thorax lowerneck lclavicle rclavicle
    lowerneck upperneck
    upperneck head
    lclavicle lhumerus
    lhumerus lradius
    lradius lwrist
    lwrist lhand lthumb
    lhand lfingers
    rclavicle rhumerus
    rhumerus rradius
    rradius rwrist
    rwrist rhand rthumb
    rhand rfingers
  end

#!OML:ASF F:\twosubjects\two\Thursday\Session 1\justin.ASF
:FULLY-SPECIFIED
:DEGREES
128
root -7.67402 17.8375 16.8321 4.86072 13.3664 5.29331
lowerback -3.61182 0.221629 -5.92447
upperback 0.577767 0.540256 0.948337
thorax 2.56318 0.17516 4.3412
lowerneck -19.4508 -1.09763 -7.77902
upperneck 28.0752 0.107344 3.29296
head 12.5643 -0.321021 2.61183
rclavicle 1.19271e-014 -2.14687e-014
rhumerus -30.9262 24.8995 -96.1358
rradius 95.8273
rwrist -8.27438
rhand -6.26903 15.8921
rfingers 7.12502
rthumb 19.5737 -13.1426
lclavicle 1.19271e-014 -2.14687e-014
lhumerus -33.2184 -29.523 102.389
lradius 92.3981
lwrist 16.0134
lhand -0.276745 48.4393
lfingers 7.12502
lthumb 25.3253 -283.222
rfemur -38.7493 -8.42011 18.5411
rtibia 28.5167
rfoot -11.7973 -11.3475
rtoes -9.62227
lfemur 3.62171 2.04526 -27.7654
ltibia 12.6081
lfoot -19.9038 -9.77963
ltoes -12.3067
129
root -7.68501 17.8274 16.9925 4.42932 13.9081 4.58673
lowerback -3.19307 0.298657 -5.48985
upperback 0.781999 0.597917 1.17489
thorax 2.5332 0.20487 4.33126
lowerneck -19.7205 -1.39559 -8.75059
upperneck 28.0897 -0.31166 4.4002
head 12.6552 -0.460693 3.14174
rclavicle 1.82882e-014 2.06736e-014
rhumerus -31.7219 24.6147 -96.4668
rradius 95.9994
rwrist -7.38122
rhand -5.5286 16.4168
rfingers 7.12502
rthumb 20.2855 -12.5438
lclavicle 1.82882e-014 2.06736e-014
lhumerus -33.7128 -29.1856 102.439
lradius 92.4369
lwrist 15.4394
lhand -0.47437 47.8868
lfingers 7.12502
lthumb 25.1359 -283.748
rfemur -38.2226 -7.54919 19.1597
rtibia 27.6549
rfoot -13.6393 -12.7407
rtoes -13.6293
lfemur 5.11699 2.4879 -26.7189
ltibia 11.1827
lfoot -19.6328 -9.85458
ltoes -15.202
130
root -7.6986 17.8162 17.1546 4.21572 14.4951 4.43015
lowerback -3.00668 0.22126 -5.77089
upperback 1.08157 0.497033 1.37129
thorax 2.74772 0.134311 4.69047
lowerneck -20.0292 -1.55025 -9.29167
upperneck 27.8777 -0.432873 4.7738
head 12.6458 -0.516007 3.35621
rclavicle -2.07233e-014 2.3059e-014
rhumerus -32.2504 24.8904 -96.6959
rradius 96.1522
rwrist -6.7247
rhand -4.94124 16.6921
rfingers 7.12502
rthumb 20.8499 -12.2075
lclavicle -2.07233e-014 2.3059e-014
lhumerus -33.931 -28.7561 102.342
lradius 92.5238
lwrist 14.8507
lhand -1.00389 47.253
lfingers 7.12502
lthumb 24.6285 -284.312
rfemur -37.761 -7.21008 19.4866
rtibia 27.0254
rfoot -15.1668 -13.5633
rtoes -19.5399
lfemur 6.50228 2.38125 -26.2147
ltibia 10.316
lfoot -19.2385 -10.4564
ltoes -12.4305
131
root -7.69749 17.81 17.3133 4.49771 14.9774 5.25941
lowerback -3.07531 0.0782078 -6.83516
upperback 1.26006 0.364474 1.21691
thorax 2.98759 0.0368357 5.12747
lowerneck -20.2006 -1.50629 -9.15345
upperneck 27.6626 -0.29819 4.45237
head 12.5836 -0.479303 3.22422
rclavicle -2.06239e-014 -1.19271e-014
rhumerus -32.7284 25.3732 -97.0571
rradius 96.158
rwrist -6.32878
rhand -4.51703 16.9335
rfingers 7.12502
rthumb 21.2574 -11.9208
lclavicle -2.06239e-014 -1.19271e-014
lhumerus -34.5559 -28.0194 102.194
lradius 92.887
lwrist 13.8819
lhand -0.856623 46.7159
lfingers 7.12502
lthumb 24.7696 -284.868
rfemur -37.673 -7.72861 19.0165
rtibia 26.6891
rfoot -16.1204 -13.2087
rtoes -21.0225
lfemur 7.39813 2.18222 -26.851
ltibia 10.1687
lfoot -18.9701 -11.1678
ltoes -7.5118
132
root -7.68035 17.8033 17.4645 4.80065 15.2041 5.69746
lowerback -2.93501 0.138917 -7.13648
upperback 1.13335 0.4496 1.00271
thorax 2.76492 0.0878556 5.07599
lowerneck -20.0698 -1.53424 -9.06179
upperneck 27.5294 -0.338791 4.31327
head 12.5071 -0.503353 3.1432
rclavicle 8.21478e-014 -1.59028e-015
rhumerus -33.6291 25.3424 -97.6286
rradius 96.1439
rwrist -5.61869
rhand -4.22623 17.1579
rfingers 7.12502
rthumb 21.5367 -11.6647
lclavicle 8.21478e-014 -1.59028e-015
lhumerus -35.6636 -27.4703 102.26
lradius 93.1763
lwrist 12.7398
lhand -0.324504 45.8059
lfingers 7.12502
lthumb 25.2795 -285.849
rfemur -37.8271 -8.23018 18.9888
rtibia 26.7298
rfoot -16.4896 -12.6135
rtoes -21.2962
lfemur 7.74568 1.92508 -27.2967
ltibia 10.4365
lfoot -18.8815 -10.8984
ltoes -6.24659
